<svg xmlns="http://www.w3.org/2000/svg" viewBox="0 0 800 450" width="800" height="450">
  <rect width="800" height="450" fill="#f3f4f5"/>
  <!-- Token grid — attention heatmap representation -->
  <!-- Row 1 -->
  <rect x="120" y="80" width="36" height="36" rx="4" fill="#006c49" opacity="0.9"/>
  <rect x="164" y="80" width="36" height="36" rx="4" fill="#006c49" opacity="0.6"/>
  <rect x="208" y="80" width="36" height="36" rx="4" fill="#006c49" opacity="0.3"/>
  <rect x="252" y="80" width="36" height="36" rx="4" fill="#bbcabf" opacity="0.5"/>
  <rect x="296" y="80" width="36" height="36" rx="4" fill="#bbcabf" opacity="0.3"/>
  <rect x="340" y="80" width="36" height="36" rx="4" fill="#bbcabf" opacity="0.2"/>
  <rect x="384" y="80" width="36" height="36" rx="4" fill="#bbcabf" opacity="0.15"/>
  <rect x="428" y="80" width="36" height="36" rx="4" fill="#bbcabf" opacity="0.1"/>
  <rect x="472" y="80" width="36" height="36" rx="4" fill="#bbcabf" opacity="0.1"/>
  <rect x="516" y="80" width="36" height="36" rx="4" fill="#bbcabf" opacity="0.1"/>
  <!-- Row 2 -->
  <rect x="120" y="124" width="36" height="36" rx="4" fill="#006c49" opacity="0.5"/>
  <rect x="164" y="124" width="36" height="36" rx="4" fill="#006c49" opacity="0.9"/>
  <rect x="208" y="124" width="36" height="36" rx="4" fill="#006c49" opacity="0.5"/>
  <rect x="252" y="124" width="36" height="36" rx="4" fill="#006c49" opacity="0.2"/>
  <rect x="296" y="124" width="36" height="36" rx="4" fill="#bbcabf" opacity="0.3"/>
  <rect x="340" y="124" width="36" height="36" rx="4" fill="#bbcabf" opacity="0.2"/>
  <rect x="384" y="124" width="36" height="36" rx="4" fill="#bbcabf" opacity="0.15"/>
  <rect x="428" y="124" width="36" height="36" rx="4" fill="#bbcabf" opacity="0.1"/>
  <rect x="472" y="124" width="36" height="36" rx="4" fill="#bbcabf" opacity="0.1"/>
  <rect x="516" y="124" width="36" height="36" rx="4" fill="#bbcabf" opacity="0.1"/>
  <!-- Row 3 -->
  <rect x="120" y="168" width="36" height="36" rx="4" fill="#bbcabf" opacity="0.3"/>
  <rect x="164" y="168" width="36" height="36" rx="4" fill="#006c49" opacity="0.4"/>
  <rect x="208" y="168" width="36" height="36" rx="4" fill="#006c49" opacity="0.9"/>
  <rect x="252" y="168" width="36" height="36" rx="4" fill="#006c49" opacity="0.5"/>
  <rect x="296" y="168" width="36" height="36" rx="4" fill="#006c49" opacity="0.2"/>
  <rect x="340" y="168" width="36" height="36" rx="4" fill="#bbcabf" opacity="0.3"/>
  <rect x="384" y="168" width="36" height="36" rx="4" fill="#bbcabf" opacity="0.2"/>
  <rect x="428" y="168" width="36" height="36" rx="4" fill="#bbcabf" opacity="0.15"/>
  <rect x="472" y="168" width="36" height="36" rx="4" fill="#bbcabf" opacity="0.1"/>
  <rect x="516" y="168" width="36" height="36" rx="4" fill="#bbcabf" opacity="0.1"/>
  <!-- Row 4 -->
  <rect x="120" y="212" width="36" height="36" rx="4" fill="#bbcabf" opacity="0.15"/>
  <rect x="164" y="212" width="36" height="36" rx="4" fill="#bbcabf" opacity="0.3"/>
  <rect x="208" y="212" width="36" height="36" rx="4" fill="#006c49" opacity="0.4"/>
  <rect x="252" y="212" width="36" height="36" rx="4" fill="#006c49" opacity="0.9"/>
  <rect x="296" y="212" width="36" height="36" rx="4" fill="#006c49" opacity="0.5"/>
  <rect x="340" y="212" width="36" height="36" rx="4" fill="#006c49" opacity="0.2"/>
  <rect x="384" y="212" width="36" height="36" rx="4" fill="#bbcabf" opacity="0.3"/>
  <rect x="428" y="212" width="36" height="36" rx="4" fill="#bbcabf" opacity="0.2"/>
  <rect x="472" y="212" width="36" height="36" rx="4" fill="#bbcabf" opacity="0.15"/>
  <rect x="516" y="212" width="36" height="36" rx="4" fill="#bbcabf" opacity="0.1"/>
  <!-- Row 5 -->
  <rect x="120" y="256" width="36" height="36" rx="4" fill="#bbcabf" opacity="0.1"/>
  <rect x="164" y="256" width="36" height="36" rx="4" fill="#bbcabf" opacity="0.15"/>
  <rect x="208" y="256" width="36" height="36" rx="4" fill="#bbcabf" opacity="0.3"/>
  <rect x="252" y="256" width="36" height="36" rx="4" fill="#006c49" opacity="0.4"/>
  <rect x="296" y="256" width="36" height="36" rx="4" fill="#006c49" opacity="0.9"/>
  <rect x="340" y="256" width="36" height="36" rx="4" fill="#006c49" opacity="0.5"/>
  <rect x="384" y="256" width="36" height="36" rx="4" fill="#006c49" opacity="0.2"/>
  <rect x="428" y="256" width="36" height="36" rx="4" fill="#bbcabf" opacity="0.3"/>
  <rect x="472" y="256" width="36" height="36" rx="4" fill="#bbcabf" opacity="0.2"/>
  <rect x="516" y="256" width="36" height="36" rx="4" fill="#bbcabf" opacity="0.15"/>
  <!-- Row 6 -->
  <rect x="120" y="300" width="36" height="36" rx="4" fill="#bbcabf" opacity="0.1"/>
  <rect x="164" y="300" width="36" height="36" rx="4" fill="#bbcabf" opacity="0.1"/>
  <rect x="208" y="300" width="36" height="36" rx="4" fill="#bbcabf" opacity="0.15"/>
  <rect x="252" y="300" width="36" height="36" rx="4" fill="#bbcabf" opacity="0.3"/>
  <rect x="296" y="300" width="36" height="36" rx="4" fill="#006c49" opacity="0.4"/>
  <rect x="340" y="300" width="36" height="36" rx="4" fill="#006c49" opacity="0.9"/>
  <rect x="384" y="300" width="36" height="36" rx="4" fill="#006c49" opacity="0.5"/>
  <rect x="428" y="300" width="36" height="36" rx="4" fill="#006c49" opacity="0.2"/>
  <rect x="472" y="300" width="36" height="36" rx="4" fill="#bbcabf" opacity="0.3"/>
  <rect x="516" y="300" width="36" height="36" rx="4" fill="#bbcabf" opacity="0.2"/>
  <!-- Row 7 -->
  <rect x="120" y="344" width="36" height="36" rx="4" fill="#bbcabf" opacity="0.1"/>
  <rect x="164" y="344" width="36" height="36" rx="4" fill="#bbcabf" opacity="0.1"/>
  <rect x="208" y="344" width="36" height="36" rx="4" fill="#bbcabf" opacity="0.1"/>
  <rect x="252" y="344" width="36" height="36" rx="4" fill="#bbcabf" opacity="0.15"/>
  <rect x="296" y="344" width="36" height="36" rx="4" fill="#bbcabf" opacity="0.3"/>
  <rect x="340" y="344" width="36" height="36" rx="4" fill="#006c49" opacity="0.4"/>
  <rect x="384" y="344" width="36" height="36" rx="4" fill="#006c49" opacity="0.9"/>
  <rect x="428" y="344" width="36" height="36" rx="4" fill="#006c49" opacity="0.5"/>
  <rect x="472" y="344" width="36" height="36" rx="4" fill="#006c49" opacity="0.2"/>
  <rect x="516" y="344" width="36" height="36" rx="4" fill="#bbcabf" opacity="0.3"/>
  <!-- Right panel - token labels placeholder -->
  <rect x="600" y="80" width="100" height="18" rx="3" fill="#bbcabf" opacity="0.3"/>
  <rect x="600" y="108" width="80" height="18" rx="3" fill="#bbcabf" opacity="0.3"/>
  <rect x="600" y="136" width="90" height="18" rx="3" fill="#bbcabf" opacity="0.3"/>
  <rect x="600" y="164" width="70" height="18" rx="3" fill="#bbcabf" opacity="0.3"/>
  <rect x="600" y="192" width="100" height="18" rx="3" fill="#bbcabf" opacity="0.3"/>
  <rect x="600" y="220" width="85" height="18" rx="3" fill="#bbcabf" opacity="0.3"/>
  <rect x="600" y="248" width="95" height="18" rx="3" fill="#bbcabf" opacity="0.3"/>
</svg>
