<?xml version="1.0" encoding="UTF-8"?>
<svg version="1.1" xmlns="http://www.w3.org/2000/svg" width="592" height="592">
<path d="M0 0 C1.06020355 0.00215515 2.1204071 0.0043103 3.21273804 0.00653076 C18.80553628 0.05739106 34.07677704 0.37798495 49.4375 3.3125 C50.49485352 3.51117676 51.55220703 3.70985352 52.64160156 3.91455078 C101.54924871 13.38535277 146.46141911 33.27405192 185.4375 64.3125 C186.41976563 65.08078125 187.40203125 65.8490625 188.4140625 66.640625 C243.09385401 110.19090142 278.87448285 173.53486253 292.25 241.75 C292.4449707 242.74241699 292.63994141 243.73483398 292.84082031 244.75732422 C295.99610327 261.78861783 296.81328662 278.57930829 296.75 295.875 C296.74784485 296.93520355 296.7456897 297.9954071 296.74346924 299.08773804 C296.69260894 314.68053628 296.37201505 329.95177704 293.4375 345.3125 C293.23882324 346.36985352 293.04014648 347.42720703 292.83544922 348.51660156 C283.36464723 397.42424871 263.47594808 442.33641911 232.4375 481.3125 C231.66921875 482.29476563 230.9009375 483.27703125 230.109375 484.2890625 C186.55909858 538.96885401 123.21513747 574.74948285 55 588.125 C54.00758301 588.3199707 53.01516602 588.51494141 51.99267578 588.71582031 C34.96138217 591.87110327 18.17069171 592.68828662 0.875 592.625 C-0.71530533 592.62176727 -0.71530533 592.62176727 -2.33773804 592.61846924 C-17.93053628 592.56760894 -33.20177704 592.24701505 -48.5625 589.3125 C-49.61985352 589.11382324 -50.67720703 588.91514648 -51.76660156 588.71044922 C-100.67424871 579.23964723 -145.58641911 559.35094808 -184.5625 528.3125 C-185.54476562 527.54421875 -186.52703125 526.7759375 -187.5390625 525.984375 C-242.21885401 482.43409858 -277.99948285 419.09013747 -291.375 350.875 C-291.5699707 349.88258301 -291.76494141 348.89016602 -291.96582031 347.86767578 C-295.12110327 330.83638217 -295.93828662 314.04569171 -295.875 296.75 C-295.87284485 295.68979645 -295.8706897 294.6295929 -295.86846924 293.53726196 C-295.81760894 277.94446372 -295.49701505 262.67322296 -292.5625 247.3125 C-292.36382324 246.25514648 -292.16514648 245.19779297 -291.96044922 244.10839844 C-282.48964723 195.20075129 -262.60094808 150.28858089 -231.5625 111.3125 C-230.41007812 109.83910156 -230.41007812 109.83910156 -229.234375 108.3359375 C-185.68409858 53.65614599 -122.34013747 17.87551715 -54.125 4.5 C-53.13258301 4.3050293 -52.14016602 4.11005859 -51.11767578 3.90917969 C-34.08638217 0.75389673 -17.29569171 -0.06328662 0 0 Z " fill="#FDFDFD" transform="translate(295.5625,-0.31250000000000006)"/>
<path d="M0 0 C16.82676715 2.97974002 31.21311927 18.15304471 43 29.53125 C43.58990723 30.09924316 44.17981445 30.66723633 44.78759766 31.25244141 C52.39167723 38.61247457 59.57198731 46.10465057 66 54.53125 C66.58491211 55.2934082 67.16982422 56.05556641 67.77246094 56.84082031 C69.79388119 59.48159491 71.80523094 62.12970496 73.8125 64.78125 C74.78304321 66.05959717 74.78304321 66.05959717 75.77319336 67.36376953 C79.20576633 71.94142914 82.29433488 76.48794474 85 81.53125 C85.69996094 81.386875 86.39992187 81.2425 87.12109375 81.09375 C99.37196405 78.70009284 111.54738541 77.85580374 124 77.53125 C125.24410645 77.49725098 126.48821289 77.46325195 127.77001953 77.42822266 C145.26441856 76.99167921 161.86876979 77.42708362 179 81.53125 C179.39481567 80.43466064 179.39481567 80.43466064 179.79760742 79.31591797 C181.01138306 76.50488752 182.38791658 74.40737802 184.23828125 71.9765625 C185.21039551 70.69543579 185.21039551 70.69543579 186.20214844 69.38842773 C186.89856445 68.48680908 187.59498047 67.58519043 188.3125 66.65625 C189.03598633 65.716604 189.75947266 64.77695801 190.50488281 63.80883789 C237.12623731 3.69479945 237.12623731 3.69479945 263.53515625 0.1953125 C264.78619141 0.17597656 264.78619141 0.17597656 266.0625 0.15625 C266.89910156 0.12789063 267.73570312 0.09953125 268.59765625 0.0703125 C271.85251414 0.69482182 272.94725845 1.9719306 275 4.53125 C279.50646197 13.07380249 280.5257173 23.11274329 282 32.53125 C282.26018921 33.78784424 282.26018921 33.78784424 282.52563477 35.06982422 C283.20022098 39.99225519 283.18303442 44.86873048 283.203125 49.83203125 C283.20882507 50.94064011 283.21452515 52.04924896 283.22039795 53.19145203 C283.22983705 55.54583794 283.2363776 57.900237 283.24023438 60.25463867 C283.24978768 63.76571772 283.28075598 67.27617144 283.3125 70.78710938 C283.41186756 91.74358871 281.00573798 112.05891674 277.3125 132.65625 C276.86568634 135.15789439 276.42409048 137.66047759 275.98828125 140.1640625 C275.70271362 141.75565186 275.70271362 141.75565186 275.41137695 143.37939453 C274.63512274 149.32683781 274.8984185 153.92703267 277 159.53125 C282.49177365 178.06598606 283.2826394 195.25524318 283 214.53125 C282.17653076 214.87333496 281.35306152 215.21541992 280.50463867 215.56787109 C279.4241626 216.01727051 278.34368652 216.46666992 277.23046875 216.9296875 C276.15949951 217.37489746 275.08853027 217.82010742 273.98510742 218.27880859 C269.386933 220.19582786 269.386933 220.19582786 265 222.53125 C264.67 223.52125 264.34 224.51125 264 225.53125 C264.55010742 225.34014648 265.10021484 225.14904297 265.66699219 224.95214844 C285.93745374 218.04006245 309.37328594 211.9444664 331 214.53125 C331.99 215.19125 332.98 215.85125 334 216.53125 C333.125 221.40625 333.125 221.40625 332 222.53125 C330.16438703 222.71248198 328.32261005 222.83178426 326.48046875 222.92578125 C309.39287954 223.90268716 309.39287954 223.90268716 292.5 226.53125 C291.68942139 226.69729736 290.87884277 226.86334473 290.04370117 227.03442383 C284.7208856 228.07476392 284.7208856 228.07476392 280 230.53125 C279.08839907 232.70333588 279.08839907 232.70333588 278.75 235.15625 C278.60046875 235.97351563 278.4509375 236.79078125 278.296875 237.6328125 C278.19890625 238.25929688 278.1009375 238.88578125 278 239.53125 C277.25234375 239.59183594 276.5046875 239.65242187 275.734375 239.71484375 C274.74953125 239.79863281 273.7646875 239.88242187 272.75 239.96875 C271.77546875 240.04996094 270.8009375 240.13117188 269.796875 240.21484375 C267.43538247 240.48199584 265.28098935 240.88496968 263 241.53125 C263 242.52125 263 243.51125 263 244.53125 C263.8971875 244.50804687 264.794375 244.48484375 265.71875 244.4609375 C285.51018251 244.17469777 312.46470999 246.40537066 329 258.53125 C329.82421875 261.21484375 329.82421875 261.21484375 330 263.53125 C324.26904306 265.02628225 321.1621993 264.02014094 315.8046875 261.70703125 C301.90611835 255.88047232 286.80952347 254.5246548 272 252.53125 C271.87625 253.294375 271.7525 254.0575 271.625 254.84375 C271 257.53125 271 257.53125 269 260.53125 C264.05 260.20125 259.1 259.87125 254 259.53125 C254 260.52125 254 261.51125 254 262.53125 C254.87398438 262.67820312 254.87398438 262.67820312 255.765625 262.828125 C275.68862456 266.46187964 296.30290917 276.24896241 310 291.53125 C309.8125 294.34375 309.8125 294.34375 309 296.53125 C303.92341783 296.06701977 301.3030102 294.5984346 297.375 291.40625 C281.70824852 278.99967092 281.70824852 278.99967092 263.38671875 273.5625 C260.12688313 274.88564114 258.85231634 276.72816155 256.75 279.53125 C253.03750011 284.34374985 249.10091492 288.43515362 244.5546875 292.4609375 C242.73397783 294.42702064 242.73397783 294.42702064 243.1171875 296.98046875 C244.0167046 299.57951595 245.04594606 301.99586706 246.25 304.46875 C250.7065859 314.00295568 253.8760749 323.97540747 256.90155029 334.03721619 C263.06794117 354.46833782 270.88205056 369.32954461 286 384.53125 C286.74507813 385.30210937 287.49015625 386.07296875 288.2578125 386.8671875 C291.90879161 390.604072 295.72121331 394.08537602 299.67578125 397.49609375 C308.44103259 405.17121299 316.84605462 413.21164885 325 421.53125 C289.14127414 459.70344205 231.05693643 480.01735096 181 489.53125 C180.05688965 489.71204102 179.1137793 489.89283203 178.14208984 490.07910156 C148.01839312 495.51097805 113.05076157 495.27215244 83 489.53125 C81.41396973 489.23323486 81.41396973 489.23323486 79.79589844 488.92919922 C37.93864995 480.8236833 37.93864995 480.8236833 27 473.53125 C26.24804688 471.65869141 26.24804688 471.65869141 25.71875 469.3828125 C25.51813965 468.5489502 25.3175293 467.71508789 25.11083984 466.85595703 C24.9092627 465.96505371 24.70768555 465.07415039 24.5 464.15625 C24.06541467 462.31242679 23.63052067 460.4686763 23.1953125 458.625 C22.8864209 457.29275391 22.8864209 457.29275391 22.57128906 455.93359375 C21.91015038 453.15342081 21.14395522 450.40830025 20.375 447.65625 C16.70512735 432.45249186 15.71141066 417.30122024 15.6875 401.71875 C15.68400543 400.99211151 15.68051086 400.26547302 15.6769104 399.51681519 C15.63845998 385.10685744 16.85687634 370.89749177 20.1875 356.84375 C20.39745605 355.93802246 20.60741211 355.03229492 20.82373047 354.09912109 C23.96877443 340.9793433 28.17841917 328.12580357 33 315.53125 C39.35219042 316.08006057 45.67873638 316.69636613 52 317.53125 C51.29617187 317.27472656 50.59234375 317.01820313 49.8671875 316.75390625 C33.68287765 310.47878872 20.40430466 300.02409908 8.125 287.90625 C7.58931396 287.37999023 7.05362793 286.85373047 6.50170898 286.31152344 C2.86951601 282.64913341 -0.09160513 278.79188751 -3 274.53125 C-9.19811885 275.67754546 -14.64526811 277.40856153 -20.3125 280.15625 C-21.04380127 280.50598877 -21.77510254 280.85572754 -22.52856445 281.21606445 C-30.40681607 285.07710662 -37.87037597 289.59515352 -44.375 295.53125 C-47.50086303 297.91285992 -49.16006508 297.98838511 -53 297.53125 C-53.28367597 294.58811176 -53.39446372 293.06048883 -51.59375 290.64453125 C-37.94614744 278.90657457 -20.20482584 267.67556843 -2 265.53125 C-2.33 264.87125 -2.66 264.21125 -3 263.53125 C-4.11375 263.44875 -5.2275 263.36625 -6.375 263.28125 C-8.169375 262.91 -8.169375 262.91 -10 262.53125 C-11.7265625 259.484375 -11.7265625 259.484375 -13 256.53125 C-15.68777802 256.4768293 -18.37443212 256.43737734 -21.0625 256.40625 C-21.81466797 256.38949219 -22.56683594 256.37273437 -23.34179688 256.35546875 C-28.26021466 256.31288505 -32.27644482 256.9988208 -37 258.53125 C-38.45417587 258.82358432 -39.91250452 259.09637623 -41.375 259.34375 C-46.96091265 260.40610148 -52.34264553 262.05858056 -57.75927734 263.7668457 C-62.51398073 265.22876442 -67.04750459 266.03600046 -72 266.53125 C-72.33 265.21125 -72.66 263.89125 -73 262.53125 C-69.15087275 259.09744284 -65.24315897 257.18390874 -60.4375 255.46875 C-59.73077148 255.21125977 -59.02404297 254.95376953 -58.29589844 254.68847656 C-52.28576516 252.54374786 -46.25056625 250.8312989 -40 249.53125 C-39.08476563 249.32628906 -38.16953125 249.12132812 -37.2265625 248.91015625 C-28.18182152 247.11359811 -19.17571506 247.3477357 -10 247.53125 C-10 246.87125 -10 246.21125 -10 245.53125 C-12.64 244.87125 -15.28 244.21125 -18 243.53125 C-18.66 239.90125 -19.32 236.27125 -20 232.53125 C-21.32 232.20125 -22.64 231.87125 -24 231.53125 C-24.66443115 231.35279541 -25.3288623 231.17434082 -26.01342773 230.99047852 C-41.51151372 226.8461484 -56.59683166 225.44695668 -72.57348633 224.74902344 C-75 224.53125 -75 224.53125 -76 223.53125 C-76.125 221.03125 -76.125 221.03125 -76 218.53125 C-73.03402756 215.56527756 -63.81675153 217.15804846 -59.83691406 217.1418457 C-43.24113846 217.33374979 -27.33047898 221.2874674 -12 227.53125 C-15.46886783 223.83661094 -15.46886783 223.83661094 -19.78125 221.27734375 C-22 219.53125 -22 219.53125 -22.44140625 217.75048828 C-22.60925056 215.34418181 -22.58714077 213.00449256 -22.5 210.59375 C-22.4808252 209.70494141 -22.46165039 208.81613281 -22.44189453 207.90039062 C-21.97516397 193.58059255 -19.57911921 180.01226468 -15.06982422 166.41601562 C-12.47588435 158.50342304 -11.37654114 151.75977519 -13.25 143.53125 C-20.7705555 107.61818987 -22.73547991 65.8646859 -17 29.53125 C-16.89284668 28.81163086 -16.78569336 28.09201172 -16.67529297 27.35058594 C-12.44290975 -0.43405499 -12.44290975 -0.43405499 0 0 Z " fill="#141414" transform="translate(164,99.46875)"/>
<path d="M0 0 C5.78819818 3.08703903 8.0091949 9.02758471 10 15 C10.69834931 25.52103311 11.07837255 36.78746475 4.7265625 45.80859375 C1.69356306 49.05298406 -1.01134386 49.90845776 -5.375 50.3125 C-9.70827455 49.93894185 -10.87478779 48.93082102 -14 46 C-20.1614898 36.85665341 -20.28976941 25.60504793 -19 15 C-17.60463821 9.48230033 -14.89651056 5.15627793 -11 1 C-7.52712734 -0.73643633 -3.79720284 -0.45487326 0 0 Z " fill="#F9F8F9" transform="translate(351,285)"/>
<path d="M0 0 C3.29387795 0.05228378 4.65711951 0.26202147 7.625 1.875 C10.19408108 4.82188712 11.3819796 7.66444559 12.75 11.3125 C13.09933594 11.86808594 13.44867188 12.42367188 13.80859375 12.99609375 C16.8420999 20.46028108 15.58812568 32.1401498 13.0625 39.625 C10.98924405 44.42816592 8.53042944 47.92228528 3.75 50.3125 C-0.74823917 50.8315276 -2.69223099 50.68792145 -6.5 48.125 C-13.45592878 41.01098193 -14.34177732 33.5534026 -14.625 23.875 C-14.5062669 15.98320689 -13.22221537 9.05778932 -7.5625 3.25 C-6.799375 2.610625 -6.03625 1.97125 -5.25 1.3125 C-3.69014791 -0.24735209 -2.16093902 0.06797656 0 0 Z " fill="#F7F7F7" transform="translate(215.25,284.6875)"/>
<path d="M0 0 C0.66 0 1.32 0 2 0 C0.50177189 4.16088221 -1.60769868 7.76724207 -3.9375 11.5 C-11.59180073 24.05077871 -18.55516893 37.06405462 -24.25 50.625 C-24.54986816 51.32931152 -24.84973633 52.03362305 -25.15869141 52.75927734 C-26.84200755 56.79013933 -26.84200755 56.79013933 -26 61 C-24.3059431 62.67883678 -24.3059431 62.67883678 -22.25 64.3125 C-13.22143188 71.995698 -13.22143188 71.995698 -12 78 C-13.91847937 76.8989859 -15.83471354 75.79405904 -17.75 74.6875 C-18.81734375 74.07261719 -19.8846875 73.45773438 -20.984375 72.82421875 C-24 71 -24 71 -26.03125 69.40625 C-28.47945705 67.65753068 -30.911054 66.79261231 -33.75 65.8125 C-35.22726562 65.29623047 -35.22726562 65.29623047 -36.734375 64.76953125 C-37.48203125 64.51558594 -38.2296875 64.26164062 -39 64 C-38.4903084 58.4364649 -37.02914962 54.35748958 -34.4375 49.4375 C-34.07817383 48.74205078 -33.71884766 48.04660156 -33.34863281 47.33007812 C-32.24566386 45.21276306 -31.1248436 43.10575938 -30 41 C-29.68111816 40.39172363 -29.36223633 39.78344727 -29.03369141 39.15673828 C-22.121218 26.03954073 -12.957206 12.114344 -2 2 C-1.34 2 -0.68 2 0 2 C0 1.34 0 0.68 0 0 Z " fill="#F0F0F0" transform="translate(417,140)"/>
<path d="M0 0 C4.50837893 3.22377731 7.42746193 6.88891354 10.5625 11.375 C11.07772217 12.10960449 11.59294434 12.84420898 12.1237793 13.60107422 C18.53052453 22.95723362 23.83660092 32.91843934 29 43 C29.39687012 43.77311523 29.79374023 44.54623047 30.20263672 45.34277344 C36.42351624 57.60875488 36.42351624 57.60875488 36 64 C34.80375 64.474375 33.6075 64.94875 32.375 65.4375 C27.15440984 67.7318995 22.51591173 70.75907376 17.78662109 73.91381836 C15.19704881 75.63332619 12.96582028 77.01139324 10 78 C11.97052825 70.99367734 18.13172036 65.02396318 24 61 C24.66 61 25.32 61 26 61 C19.7409215 44.1434561 12.78996276 27.87689053 4.77709961 11.78100586 C4.45939606 11.14078995 4.1416925 10.50057404 3.81436157 9.84095764 C2.94865577 8.10097255 2.07576079 6.36456964 1.20239258 4.62841797 C0 2 0 2 0 0 Z " fill="#EEEEEE" transform="translate(171,140)"/>
<path d="M0 0 C20.64474227 -0.53391575 48.69097285 1.30671343 66 14 C66.82421875 16.68359375 66.82421875 16.68359375 67 19 C61.27084091 20.49456324 58.16364524 19.49126414 52.80859375 17.17578125 C39.22000612 11.48709575 24.47009246 10.03031751 10 8 C10 7.01 10 6.02 10 5 C11.32 4.01 12.64 3.02 14 2 C7.07 1.505 7.07 1.505 0 1 C0 0.67 0 0.34 0 0 Z " fill="#232323" transform="translate(427,344)"/>
<path d="M0 0 C0.69867188 -0.00322266 1.39734375 -0.00644531 2.1171875 -0.00976562 C7.3424746 0.04445905 11.23994061 0.55244061 15 4.3125 C14.89042575 8.08498501 14.33997067 9.89954128 11.92578125 12.83203125 C11.06339844 13.58871094 10.20101563 14.34539062 9.3125 15.125 C8.03826172 16.27935547 8.03826172 16.27935547 6.73828125 17.45703125 C3.60357124 19.58112149 1.79151341 20.34710312 -2 20.3125 C-4.703125 18.546875 -4.703125 18.546875 -7.25 16.0625 C-8.10078125 15.25296875 -8.9515625 14.4434375 -9.828125 13.609375 C-14.02155248 9.17459918 -14.02155248 9.17459918 -13.9375 5.8125 C-11.65127979 -0.28408722 -5.68776202 -0.13117532 0 0 Z " fill="#F3F3F3" transform="translate(274,337.6875)"/>
<path d="M0 0 C0 0.33 0 0.66 0 1 C-4.62 1.33 -9.24 1.66 -14 2 C-13.01 2.33 -12.02 2.66 -11 3 C-11.33 4.32 -11.66 5.64 -12 7 C-8.7 7 -5.4 7 -2 7 C-2 7.33 -2 7.66 -2 8 C-3.14597656 8.04898437 -4.29195312 8.09796875 -5.47265625 8.1484375 C-7.00262535 8.22352801 -8.53257218 8.29907306 -10.0625 8.375 C-10.81466797 8.4059375 -11.56683594 8.436875 -12.34179688 8.46875 C-17.16767642 8.71944504 -21.36137836 9.54021506 -26 11 C-27.45417587 11.29233432 -28.91250452 11.56512623 -30.375 11.8125 C-35.96091265 12.87485148 -41.34264553 14.52733056 -46.75927734 16.2355957 C-51.51398073 17.69751442 -56.04750459 18.50475046 -61 19 C-61.33 17.68 -61.66 16.36 -62 15 C-58.15087275 11.56619284 -54.24315897 9.65265874 -49.4375 7.9375 C-48.37740723 7.55126465 -48.37740723 7.55126465 -47.29589844 7.15722656 C-41.28598973 5.012578 -35.25077003 3.29830299 -29 2 C-28.07316406 1.79503906 -27.14632812 1.59007812 -26.19140625 1.37890625 C-17.46785599 -0.33739604 -8.84698693 -0.18867982 0 0 Z " fill="#1A1A1A" transform="translate(153,347)"/>
<path d="M0 0 C7.18598546 1.07175999 13.01775035 3.07586121 19.375 6.5625 C20.19500488 7.00360107 21.01500977 7.44470215 21.85986328 7.89916992 C30.72888079 12.77826281 39.19284858 18.4201449 46 26 C45.8125 28.8125 45.8125 28.8125 45 31 C39.92341783 30.53576977 37.3030102 29.0671846 33.375 25.875 C24.49465355 18.9004623 15.00043907 13.79155433 4.6171875 9.359375 C2 8 2 8 0 5 C-0.125 2.3125 -0.125 2.3125 0 0 Z " fill="#201F1F" transform="translate(428,365)"/>
<path d="M0 0 C-0.5259375 1.175625 -0.5259375 1.175625 -1.0625 2.375 C-1.371875 3.24125 -1.68125 4.1075 -2 5 C-1.505 5.99 -1.505 5.99 -1 7 C-1.78761719 7.27972656 -2.57523438 7.55945313 -3.38671875 7.84765625 C-16.94606719 12.83813834 -31.63150019 19.63150019 -42 30 C-45.125 30.125 -45.125 30.125 -48 30 C-48.28367597 27.05686176 -48.39446372 25.52923883 -46.59375 23.11328125 C-36.99878543 14.86089568 -13.40403429 -4.15987271 0 0 Z " fill="#1E1E1E" transform="translate(159,367)"/>
<path d="M0 0 C0.55816406 0.36351562 1.11632812 0.72703125 1.69140625 1.1015625 C1.36140625 1.7615625 1.03140625 2.4215625 0.69140625 3.1015625 C1.68140625 4.0915625 2.67140625 5.0815625 3.69140625 6.1015625 C1.29852921 6.9443368 -1.09730394 7.77593252 -3.49609375 8.6015625 C-4.16962891 8.84003906 -4.84316406 9.07851563 -5.53710938 9.32421875 C-9.24063842 10.58883842 -12.38799911 11.40607471 -16.30859375 11.1015625 C-16.63859375 9.7815625 -16.96859375 8.4615625 -17.30859375 7.1015625 C-13.23101872 3.29582581 -5.74402087 -2.23540575 0 0 Z " fill="#202020" transform="translate(108.30859375,354.8984375)"/>
<path d="M0 0 C0 0.33 0 0.66 0 1 C-4.62 1.33 -9.24 1.66 -14 2 C-13.01 2.33 -12.02 2.66 -11 3 C-11.33 4.32 -11.66 5.64 -12 7 C-8.7 7 -5.4 7 -2 7 C-2 7.33 -2 7.66 -2 8 C-4.95887459 8.08069658 -7.9155659 8.14034665 -10.875 8.1875 C-12.13763672 8.22520508 -12.13763672 8.22520508 -13.42578125 8.26367188 C-14.23144531 8.27333984 -15.03710938 8.28300781 -15.8671875 8.29296875 C-16.98262939 8.31653442 -16.98262939 8.31653442 -18.12060547 8.34057617 C-19.05090576 8.17199097 -19.05090576 8.17199097 -20 8 C-20.66 7.01 -21.32 6.02 -22 5 C-24.92334973 4.08221709 -24.92334973 4.08221709 -28 4 C-28.99 4.66 -29.98 5.32 -31 6 C-33.6875 6.125 -33.6875 6.125 -36 6 C-36.33 5.34 -36.66 4.68 -37 4 C-24.47501844 1.09865991 -12.86276059 -0.59981785 0 0 Z " fill="#373737" transform="translate(153,347)"/>
<path d="M0 0 C4.34372174 3.13843679 7.24446634 6.62407193 10.3125 10.9375 C10.9940918 11.84918945 10.9940918 11.84918945 11.68945312 12.77929688 C14.19876966 16.27724639 15.61921332 18.64899443 15 23 C13.02 23.99 13.02 23.99 11 25 C9.16038326 21.21135025 7.32937928 17.41860225 5.5 13.625 C4.97535156 12.54476562 4.45070312 11.46453125 3.91015625 10.3515625 C3.16572266 8.8046875 3.16572266 8.8046875 2.40625 7.2265625 C1.71499023 5.79691162 1.71499023 5.79691162 1.00976562 4.33837891 C0 2 0 2 0 0 Z " fill="#E7E7E7" transform="translate(171,140)"/>
<path d="M0 0 C0.99 0.33 1.98 0.66 3 1 C2.5373877 1.43231934 2.07477539 1.86463867 1.59814453 2.31005859 C-7.06522058 10.41380261 -15.70252002 18.51903766 -24 27 C-24.66 26.34 -25.32 25.68 -26 25 C-22.94334933 21.91855124 -19.88336724 18.84046078 -16.8203125 15.76538086 C-15.77968613 14.71973904 -14.73996076 13.67319971 -13.70117188 12.62573242 C-12.20420968 11.11658231 -10.70399132 9.61073502 -9.203125 8.10546875 C-8.30239258 7.19949951 -7.40166016 6.29353027 -6.47363281 5.36010742 C-2.30918174 1.38678049 -2.30918174 1.38678049 0 0 Z " fill="#1B1B1C" transform="translate(398,117)"/>
<path d="M0 0 C0.66 0 1.32 0 2 0 C0.47146065 4.27186525 -1.71509481 7.99326863 -4.125 11.8125 C-4.49753906 12.40998047 -4.87007813 13.00746094 -5.25390625 13.62304688 C-6.1657048 15.08426251 -7.08235976 16.54244585 -8 18 C-8.99 17.67 -9.98 17.34 -11 17 C-13.14255793 17.38932856 -13.14255793 17.38932856 -15 18 C-6.66604995 6.52173913 -6.66604995 6.52173913 -2 2 C-1.34 2 -0.68 2 0 2 C0 1.34 0 0.68 0 0 Z " fill="#EDEDED" transform="translate(417,140)"/>
<path d="M0 0 C0.66 0.33 1.32 0.66 2 1 C2 2.65 2 4.3 2 6 C0.39743892 6.50512244 -1.20711792 7.00391627 -2.8125 7.5 C-4.15248047 7.91765625 -4.15248047 7.91765625 -5.51953125 8.34375 C-8 9 -8 9 -11 9 C-10.80859375 7.17578125 -10.80859375 7.17578125 -10 5 C-7.78515625 3.48046875 -7.78515625 3.48046875 -5.0625 2.1875 C-4.16660156 1.74792969 -3.27070313 1.30835938 -2.34765625 0.85546875 C-1.57292969 0.57316406 -0.79820312 0.29085938 0 0 Z " fill="#EBEBEB" transform="translate(439,316)"/>
<path d="M0 0 C6.22987798 0.50512524 11.45474233 3.32604123 17 6 C12.97985339 7.56454159 9.30074319 6.46223974 5.25 5.5625 C4.55261719 5.41490234 3.85523438 5.26730469 3.13671875 5.11523438 C1.4227979 4.75131967 -0.28884581 4.37670932 -2 4 C-1.34 2.68 -0.68 1.36 0 0 Z " fill="#CCCCCC" transform="translate(200,411)"/>
<path d="M0 0 C0.33 0 0.66 0 1 0 C1.02505615 0.95366455 1.0501123 1.9073291 1.07592773 2.88989258 C1.17012071 6.42909107 1.27031231 9.96809875 1.37231445 13.50708008 C1.41561833 15.03861018 1.45729667 16.57018715 1.49731445 18.10180664 C1.55512732 20.30369182 1.61878969 22.50534211 1.68359375 24.70703125 C1.70030624 25.39150833 1.71701874 26.07598541 1.73423767 26.78120422 C1.8273555 29.77120104 2.04687437 32.14062311 3 35 C2.83988879 37.70123106 2.39559392 40.31875231 2 43 C1.67 43 1.34 43 1 43 C0.21358035 37.47057185 -0.13742082 32.14273002 -0.09765625 26.5625 C-0.0962413 25.79695801 -0.09482635 25.03141602 -0.09336853 24.24267578 C-0.08782853 21.82840858 -0.07528779 19.41423856 -0.0625 17 C-0.05747723 15.35026177 -0.05291569 13.70052206 -0.04882812 12.05078125 C-0.03787886 8.03381745 -0.02065666 4.01692513 0 0 Z " fill="#2F2F2F" transform="translate(180,484)"/>
<path d="M0 0 C3.85827044 0.41338612 6.20102636 2.43427416 9 5 C9 5.66 9 6.32 9 7 C5.87709365 6.51421457 3.00419641 6.0013988 0 5 C-0.75 3 -0.75 3 -1 1 C-0.67 0.67 -0.34 0.34 0 0 Z " fill="#EBEBEB" transform="translate(143,320)"/>
<path d="M0 0 C0.98484375 0.01804687 1.9696875 0.03609375 2.984375 0.0546875 C4.10585938 0.08949219 4.10585938 0.08949219 5.25 0.125 C5.25 0.455 5.25 0.785 5.25 1.125 C4.280625 1.24875 3.31125 1.3725 2.3125 1.5 C0.7965625 1.809375 0.7965625 1.809375 -0.75 2.125 C-1.08 2.785 -1.41 3.445 -1.75 4.125 C-4.39860427 4.71855614 -7.04197322 4.86709269 -9.75 5.125 C-9.75 4.135 -9.75 3.145 -9.75 2.125 C-6.40060119 0.09941119 -3.88037449 -0.09238987 0 0 Z " fill="#CFCFCF" transform="translate(436.75,338.875)"/>
<path d="M0 0 C3.80666984 1.44390925 5.26602582 3.34952803 7 7 C6.67 7.66 6.34 8.32 6 9 C3.03 7.02 0.06 5.04 -3 3 C-2.01 2.01 -1.02 1.02 0 0 Z " fill="#DEDEDE" transform="translate(398,209)"/>
<path d="M0 0 C2.625 0.375 2.625 0.375 5 1 C2.11912454 3.40072955 -0.56404834 5.47291037 -4 7 C-2.92598892 4.08482708 -2.22189824 2.22189824 0 0 Z " fill="#D9D9DA" transform="translate(185,211)"/>
<path d="M0 0 C2.97 0 5.94 0 9 0 C8.67 0.99 8.34 1.98 8 3 C4.71303767 3.79953138 3.28976808 4.09658936 0 3 C0 2.01 0 1.02 0 0 Z " fill="#E1E1E1" transform="translate(418,359)"/>
<path d="M0 0 C7.48291572 6.15034169 7.48291572 6.15034169 10 10 C7 10 7 10 5.17578125 8.3203125 C4.56089844 7.59585937 3.94601562 6.87140625 3.3125 6.125 C2.68988281 5.40570313 2.06726563 4.68640625 1.42578125 3.9453125 C0 2 0 2 0 0 Z " fill="#1A1A1B" transform="translate(440,475)"/>
<path d="M0 0 C2.04219706 1.69179328 2.91793306 2.63727666 3.51171875 5.26171875 C3.56972656 6.06222656 3.62773437 6.86273438 3.6875 7.6875 C3.75324219 8.49574219 3.81898438 9.30398438 3.88671875 10.13671875 C3.92410156 10.75160156 3.96148437 11.36648438 4 12 C2 11 2 11 0.875 7.6875 C0 4 0 4 0 0 Z " fill="#262627" transform="translate(437,251)"/>
<path d="M0 0 C0.66 0 1.32 0 2 0 C0.92598892 2.91517292 0.22189824 4.77810176 -2 7 C-3.66666667 7 -5.33333333 7 -7 7 C-5.37660195 5.29115995 -3.70680947 3.62553283 -2 2 C-1.34 2 -0.68 2 0 2 C0 1.34 0 0.68 0 0 Z " fill="#C4C4C4" transform="translate(417,140)"/>
<path d="M0 0 C0.33 0 0.66 0 1 0 C1.144375 0.763125 1.28875 1.52625 1.4375 2.3125 C1.9632594 5.08172908 1.9632594 5.08172908 3 8 C2.83988879 10.70123106 2.39559392 13.31875231 2 16 C1.67 16 1.34 16 1 16 C0.67 10.72 0.34 5.44 0 0 Z " fill="#4A4B4A" transform="translate(180,511)"/>
<path d="M0 0 C-3.85756507 2.15305957 -6.55129785 3.39253254 -11 3 C-11.33 2.34 -11.66 1.68 -12 1 C-3.96428571 -1.27678571 -3.96428571 -1.27678571 0 0 Z " fill="#3F3F40" transform="translate(128,350)"/>
<path d="M0 0 C-1.4562545 0.67119549 -2.91507867 1.33681807 -4.375 2 C-5.59316406 2.556875 -5.59316406 2.556875 -6.8359375 3.125 C-9 4 -9 4 -11 4 C-11.33 4.99 -11.66 5.98 -12 7 C-11.9375 4.6875 -11.9375 4.6875 -11 2 C-6.94257211 -0.2966573 -4.45798996 -1.43679147 0 0 Z " fill="#C0C0C1" transform="translate(455,327)"/>
<path d="M0 0 C-0.33 1.32 -0.66 2.64 -1 4 C-3.64 4.33 -6.28 4.66 -9 5 C-2.87096774 0 -2.87096774 0 0 0 Z " fill="#282928" transform="translate(200,207)"/>
<path d="M0 0 C0.33 0.66 0.66 1.32 1 2 C-0.1875 4.5625 -0.1875 4.5625 -2 7 C-3.32 7.33 -4.64 7.66 -6 8 C-4.02 5.36 -2.04 2.72 0 0 Z " fill="#E2E1E1" transform="translate(408,150)"/>
<path d="M0 0 C2.31 0 4.62 0 7 0 C7.33 0.99 7.66 1.98 8 3 C6.35 3.33 4.7 3.66 3 4 C3 3.01 3 2.02 3 1 C2.01 0.67 1.02 0.34 0 0 Z " fill="#E2E2E2" transform="translate(154,362)"/>
<path d="M0 0 C0.66 0.33 1.32 0.66 2 1 C1.34 2.98 0.68 4.96 0 7 C-0.99 7 -1.98 7 -3 7 C-2.25 2.25 -2.25 2.25 0 0 Z " fill="#D3D3D4" transform="translate(263,339)"/>
<path d="M0 0 C0.66 1.32 1.32 2.64 2 4 C0.35 4.33 -1.3 4.66 -3 5 C-3.33 4.34 -3.66 3.68 -4 3 C-2.68 2.01 -1.36 1.02 0 0 Z " fill="#F4F4F4" transform="translate(190,207)"/>
<path d="M0 0 C0.99 0.33 1.98 0.66 3 1 C1.35 2.65 -0.3 4.3 -2 6 C-2.33 5.01 -2.66 4.02 -3 3 C-2.34 3 -1.68 3 -1 3 C-0.67 2.01 -0.34 1.02 0 0 Z " fill="#E6E6E7" transform="translate(378,132)"/>
</svg>
